<mxfile host="app.diagrams.net" modified="2024-02-23T15:49:11.323Z" agent="Mozilla/5.0 (Macintosh; Intel Mac OS X 10_15_7) AppleWebKit/537.36 (KHTML, like Gecko) Chrome/122.0.0.0 Safari/537.36" etag="WrD2MmEP__qKfi3Tg5G0" version="23.1.5" type="device">
  <diagram id="C5RBs43oDa-KdzZeNtuy" name="Page-1">
    <mxGraphModel dx="1085" dy="797" grid="1" gridSize="10" guides="1" tooltips="1" connect="1" arrows="1" fold="1" page="1" pageScale="1" pageWidth="827" pageHeight="1169" math="0" shadow="0">
      <root>
        <mxCell id="WIyWlLk6GJQsqaUBKTNV-0" />
        <mxCell id="WIyWlLk6GJQsqaUBKTNV-1" parent="WIyWlLk6GJQsqaUBKTNV-0" />
        <mxCell id="Am272emxzI2uM6hUtCL2-1" style="edgeStyle=orthogonalEdgeStyle;rounded=0;orthogonalLoop=1;jettySize=auto;html=1;endArrow=none;endFill=0;" edge="1" parent="WIyWlLk6GJQsqaUBKTNV-1" source="Am272emxzI2uM6hUtCL2-0">
          <mxGeometry relative="1" as="geometry">
            <mxPoint x="440" y="160" as="targetPoint" />
          </mxGeometry>
        </mxCell>
        <mxCell id="Am272emxzI2uM6hUtCL2-0" value="Начало" style="rounded=1;whiteSpace=wrap;html=1;arcSize=50;" vertex="1" parent="WIyWlLk6GJQsqaUBKTNV-1">
          <mxGeometry x="400" y="80" width="80" height="40" as="geometry" />
        </mxCell>
        <mxCell id="Am272emxzI2uM6hUtCL2-3" style="edgeStyle=orthogonalEdgeStyle;rounded=0;orthogonalLoop=1;jettySize=auto;html=1;endArrow=none;endFill=0;" edge="1" parent="WIyWlLk6GJQsqaUBKTNV-1" source="Am272emxzI2uM6hUtCL2-2">
          <mxGeometry relative="1" as="geometry">
            <mxPoint x="440" y="280" as="targetPoint" />
          </mxGeometry>
        </mxCell>
        <mxCell id="Am272emxzI2uM6hUtCL2-2" value="geti(a)&lt;br&gt;geti(b)&lt;br&gt;geti(m)" style="whiteSpace=wrap;html=1;aspect=fixed;" vertex="1" parent="WIyWlLk6GJQsqaUBKTNV-1">
          <mxGeometry x="400" y="160" width="80" height="80" as="geometry" />
        </mxCell>
        <mxCell id="Am272emxzI2uM6hUtCL2-5" style="edgeStyle=orthogonalEdgeStyle;rounded=0;orthogonalLoop=1;jettySize=auto;html=1;endArrow=none;endFill=0;" edge="1" parent="WIyWlLk6GJQsqaUBKTNV-1" source="Am272emxzI2uM6hUtCL2-4">
          <mxGeometry relative="1" as="geometry">
            <mxPoint x="520" y="380" as="targetPoint" />
          </mxGeometry>
        </mxCell>
        <mxCell id="Am272emxzI2uM6hUtCL2-6" style="edgeStyle=orthogonalEdgeStyle;rounded=0;orthogonalLoop=1;jettySize=auto;html=1;endArrow=none;endFill=0;" edge="1" parent="WIyWlLk6GJQsqaUBKTNV-1" source="Am272emxzI2uM6hUtCL2-4">
          <mxGeometry relative="1" as="geometry">
            <mxPoint x="360" y="400" as="targetPoint" />
          </mxGeometry>
        </mxCell>
        <mxCell id="Am272emxzI2uM6hUtCL2-4" value="m &amp;lt; 0" style="rhombus;whiteSpace=wrap;html=1;" vertex="1" parent="WIyWlLk6GJQsqaUBKTNV-1">
          <mxGeometry x="400" y="280" width="80" height="60" as="geometry" />
        </mxCell>
        <mxCell id="Am272emxzI2uM6hUtCL2-9" style="edgeStyle=orthogonalEdgeStyle;rounded=0;orthogonalLoop=1;jettySize=auto;html=1;endArrow=none;endFill=0;" edge="1" parent="WIyWlLk6GJQsqaUBKTNV-1" source="Am272emxzI2uM6hUtCL2-7">
          <mxGeometry relative="1" as="geometry">
            <mxPoint x="440" y="560" as="targetPoint" />
            <Array as="points">
              <mxPoint x="360" y="510" />
              <mxPoint x="440" y="510" />
              <mxPoint x="440" y="560" />
            </Array>
          </mxGeometry>
        </mxCell>
        <mxCell id="Am272emxzI2uM6hUtCL2-7" value="a += b&lt;br&gt;a /= m" style="rounded=0;whiteSpace=wrap;html=1;" vertex="1" parent="WIyWlLk6GJQsqaUBKTNV-1">
          <mxGeometry x="320" y="400" width="80" height="50" as="geometry" />
        </mxCell>
        <mxCell id="Am272emxzI2uM6hUtCL2-10" style="edgeStyle=orthogonalEdgeStyle;rounded=0;orthogonalLoop=1;jettySize=auto;html=1;endArrow=none;endFill=0;" edge="1" parent="WIyWlLk6GJQsqaUBKTNV-1" source="Am272emxzI2uM6hUtCL2-8">
          <mxGeometry relative="1" as="geometry">
            <mxPoint x="440" y="560" as="targetPoint" />
            <Array as="points">
              <mxPoint x="520" y="510" />
              <mxPoint x="440" y="510" />
              <mxPoint x="440" y="560" />
            </Array>
          </mxGeometry>
        </mxCell>
        <mxCell id="Am272emxzI2uM6hUtCL2-8" value="b *= b&lt;br&gt;b *= b&lt;br&gt;m *= b&lt;br&gt;a = m + b" style="rounded=0;whiteSpace=wrap;html=1;" vertex="1" parent="WIyWlLk6GJQsqaUBKTNV-1">
          <mxGeometry x="480" y="380" width="80" height="80" as="geometry" />
        </mxCell>
        <mxCell id="Am272emxzI2uM6hUtCL2-13" style="edgeStyle=orthogonalEdgeStyle;rounded=0;orthogonalLoop=1;jettySize=auto;html=1;entryX=0.5;entryY=0;entryDx=0;entryDy=0;endArrow=none;endFill=0;" edge="1" parent="WIyWlLk6GJQsqaUBKTNV-1" source="Am272emxzI2uM6hUtCL2-11" target="Am272emxzI2uM6hUtCL2-12">
          <mxGeometry relative="1" as="geometry" />
        </mxCell>
        <mxCell id="Am272emxzI2uM6hUtCL2-11" value="outi(a)" style="rounded=0;whiteSpace=wrap;html=1;" vertex="1" parent="WIyWlLk6GJQsqaUBKTNV-1">
          <mxGeometry x="400" y="560" width="80" height="40" as="geometry" />
        </mxCell>
        <mxCell id="Am272emxzI2uM6hUtCL2-12" value="Конец" style="rounded=1;whiteSpace=wrap;html=1;arcSize=50;" vertex="1" parent="WIyWlLk6GJQsqaUBKTNV-1">
          <mxGeometry x="400" y="640" width="80" height="40" as="geometry" />
        </mxCell>
        <mxCell id="Am272emxzI2uM6hUtCL2-14" value="Да" style="text;html=1;align=center;verticalAlign=middle;whiteSpace=wrap;rounded=0;" vertex="1" parent="WIyWlLk6GJQsqaUBKTNV-1">
          <mxGeometry x="480" y="280" width="60" height="30" as="geometry" />
        </mxCell>
        <mxCell id="Am272emxzI2uM6hUtCL2-15" value="Нет" style="text;html=1;align=center;verticalAlign=middle;whiteSpace=wrap;rounded=0;" vertex="1" parent="WIyWlLk6GJQsqaUBKTNV-1">
          <mxGeometry x="340" y="280" width="60" height="30" as="geometry" />
        </mxCell>
      </root>
    </mxGraphModel>
  </diagram>
</mxfile>
